<svg width="183" height="48" viewBox="0 0 183 48" fill="none" xmlns="http://www.w3.org/2000/svg">
<path d="M25.824 12.76V35H22.176V19.768L15.392 35H12.864L6.048 19.768V35H2.4V12.76H6.336L14.144 30.2L21.92 12.76H25.824ZM38.2668 35.288C36.6028 35.288 35.0988 34.9147 33.7548 34.168C32.4108 33.4 31.3548 32.3333 30.5868 30.968C29.8188 29.5813 29.4348 27.9813 29.4348 26.168C29.4348 24.376 29.8294 22.7867 30.6188 21.4C31.4081 20.0133 32.4854 18.9467 33.8508 18.2C35.2161 17.4533 36.7414 17.08 38.4268 17.08C40.1121 17.08 41.6374 17.4533 43.0028 18.2C44.3681 18.9467 45.4454 20.0133 46.2348 21.4C47.0241 22.7867 47.4188 24.376 47.4188 26.168C47.4188 27.96 47.0134 29.5493 46.2028 30.936C45.3921 32.3227 44.2828 33.4 42.8748 34.168C41.4881 34.9147 39.9521 35.288 38.2668 35.288ZM38.2668 32.12C39.2054 32.12 40.0801 31.896 40.8908 31.448C41.7228 31 42.3948 30.328 42.9068 29.432C43.4188 28.536 43.6748 27.448 43.6748 26.168C43.6748 24.888 43.4294 23.8107 42.9388 22.936C42.4481 22.04 41.7974 21.368 40.9868 20.92C40.1761 20.472 39.3014 20.248 38.3628 20.248C37.4241 20.248 36.5494 20.472 35.7388 20.92C34.9494 21.368 34.3201 22.04 33.8508 22.936C33.3814 23.8107 33.1468 24.888 33.1468 26.168C33.1468 28.0667 33.6268 29.5387 34.5868 30.584C35.5681 31.608 36.7948 32.12 38.2668 32.12ZM59.921 17.08C61.3077 17.08 62.545 17.368 63.633 17.944C64.7423 18.52 65.6063 19.3733 66.225 20.504C66.8437 21.6347 67.153 23 67.153 24.6V35H63.537V25.144C63.537 23.5653 63.1423 22.36 62.353 21.528C61.5637 20.6747 60.4863 20.248 59.121 20.248C57.7557 20.248 56.6677 20.6747 55.857 21.528C55.0677 22.36 54.673 23.5653 54.673 25.144V35H51.025V17.368H54.673V19.384C55.2703 18.6587 56.0277 18.0933 56.945 17.688C57.8837 17.2827 58.8757 17.08 59.921 17.08ZM87.9663 25.752C87.9663 26.4133 87.9236 27.0107 87.8383 27.544H74.3663C74.4729 28.952 74.9956 30.0827 75.9343 30.936C76.8729 31.7893 78.0249 32.216 79.3903 32.216C81.3529 32.216 82.7396 31.3947 83.5503 29.752H87.4862C86.9529 31.3733 85.9823 32.7067 84.5743 33.752C83.1876 34.776 81.4596 35.288 79.3903 35.288C77.7049 35.288 76.1903 34.9147 74.8463 34.168C73.5236 33.4 72.4783 32.3333 71.7103 30.968C70.9636 29.5813 70.5903 27.9813 70.5903 26.168C70.5903 24.3547 70.9529 22.7653 71.6783 21.4C72.4249 20.0133 73.4596 18.9467 74.7823 18.2C76.1263 17.4533 77.6623 17.08 79.3903 17.08C81.0543 17.08 82.5369 17.4427 83.8383 18.168C85.1396 18.8933 86.1529 19.9173 86.8783 21.24C87.6036 22.5413 87.9663 24.0453 87.9663 25.752ZM84.1583 24.6C84.1369 23.256 83.6569 22.1787 82.7183 21.368C81.7796 20.5573 80.6169 20.152 79.2303 20.152C77.9716 20.152 76.8943 20.5573 75.9983 21.368C75.1023 22.1573 74.5689 23.2347 74.3983 24.6H84.1583ZM107.428 17.368L96.6123 43.288H92.8363L96.4203 34.712L89.4763 17.368H93.5403L98.5003 30.808L103.652 17.368H107.428Z" fill="black"/>
<path d="M123.608 12.536V16.92H114.456V21.656H121.304V25.912H114.456V35H108.984V12.536H123.608ZM131.956 11.32V35H126.484V11.32H131.956ZM144.05 35.256C142.3 35.256 140.722 34.8827 139.314 34.136C137.927 33.3893 136.828 32.3227 136.018 30.936C135.228 29.5493 134.834 27.928 134.834 26.072C134.834 24.2373 135.239 22.6267 136.049 21.24C136.86 19.832 137.97 18.7547 139.378 18.008C140.786 17.2613 142.364 16.888 144.114 16.888C145.863 16.888 147.442 17.2613 148.85 18.008C150.258 18.7547 151.367 19.832 152.178 21.24C152.988 22.6267 153.394 24.2373 153.394 26.072C153.394 27.9067 152.978 29.528 152.146 30.936C151.335 32.3227 150.215 33.3893 148.786 34.136C147.378 34.8827 145.799 35.256 144.05 35.256ZM144.05 30.52C145.095 30.52 145.98 30.136 146.706 29.368C147.452 28.6 147.826 27.5013 147.826 26.072C147.826 24.6427 147.463 23.544 146.738 22.776C146.034 22.008 145.159 21.624 144.114 21.624C143.047 21.624 142.162 22.008 141.458 22.776C140.754 23.5227 140.402 24.6213 140.402 26.072C140.402 27.5013 140.743 28.6 141.426 29.368C142.13 30.136 143.004 30.52 144.05 30.52ZM181.929 17.144L177.097 35H171.049L168.233 23.416L165.321 35H159.305L154.441 17.144H159.913L162.441 29.912L165.449 17.144H171.241L174.281 29.848L176.777 17.144H181.929Z" fill="#1E33EB"/>
</svg>
